HIERARCHY
ROOT Hips
{
	OFFSET -3.958830 18.904000 13.208200
	CHANNELS 6 Xposition Yposition Zposition Zrotation Yrotation Xrotation 
	JOINT LHipJoint
	{
		OFFSET 0.000000 0.000000 0.000000
		CHANNELS 3 Zrotation Yrotation Xrotation
		JOINT LeftUpLeg
		{
			OFFSET 1.800000 -1.400000 0.085000
			CHANNELS 3 Zrotation Yrotation Xrotation
			JOINT LeftLeg
			{
				OFFSET 2.215000 -6.000000 0.000000
				CHANNELS 3 Zrotation Yrotation Xrotation
				JOINT LeftFoot
				{
					OFFSET 2.500000 -6.900000 0.000000
					CHANNELS 3 Zrotation Yrotation Xrotation
					JOINT LeftToeBase
					{
						OFFSET 0.200000 -0.500000 1.950000
						CHANNELS 3 Zrotation Yrotation Xrotation
						End Site
						{
							OFFSET 0.000000 0.000000 0.000000
						}
					}
				}
			}
		}
	}
	JOINT RHipJoint
	{
		OFFSET 0.000000 0.000000 0.000000
		CHANNELS 3 Zrotation Yrotation Xrotation
		JOINT RightUpLeg
		{
			OFFSET -1.800000 -1.400000 0.085000
			CHANNELS 3 Zrotation Yrotation Xrotation
			JOINT RightLeg
			{
				OFFSET -2.215000 -6.000000 0.000000
				CHANNELS 3 Zrotation Yrotation Xrotation
				JOINT RightFoot
				{
					OFFSET -2.500000 -6.900000 0.000000
					CHANNELS 3 Zrotation Yrotation Xrotation
					JOINT RightToeBase
					{
						OFFSET -0.200000 -0.500000 1.950000
						CHANNELS 3 Zrotation Yrotation Xrotation
						End Site
						{
							OFFSET 0.000000 0.000000 0.000000
						}
					}
				}
			}
		}
	}
	JOINT LowerBack
	{
		OFFSET 0.000000 0.000000 0.000000
		CHANNELS 3 Zrotation Yrotation Xrotation
		JOINT Spine
		{
			OFFSET -0.087000 1.940000 -0.288900
			CHANNELS 3 Zrotation Yrotation Xrotation
			JOINT Spine1
			{
				OFFSET 0.000000 1.950000 0.060000
				CHANNELS 3 Zrotation Yrotation Xrotation
				JOINT Neck
				{
					OFFSET 0.000000 0.000000 0.000000
					CHANNELS 3 Zrotation Yrotation Xrotation
					JOINT Neck1
					{
						OFFSET 0.000000 1.600000 0.340000
						CHANNELS 3 Zrotation Yrotation Xrotation
						JOINT Head
						{
							OFFSET 0.000000 1.667000 -0.240000
							CHANNELS 3 Zrotation Yrotation Xrotation
							End Site
							{
								OFFSET 0.000000 0.000000 0.000000
							}
						}
					}
				}
				JOINT LeftShoulder
				{
					OFFSET 0.000000 0.000000 0.000000
					CHANNELS 3 Zrotation Yrotation Xrotation
					JOINT LeftArm
					{
						OFFSET 2.700000 1.550000 -0.730000
						CHANNELS 3 Zrotation Yrotation Xrotation
						JOINT LeftForeArm
						{
							OFFSET 5.450000 0.000000 0.000000
							CHANNELS 3 Zrotation Yrotation Xrotation
							JOINT LeftHand
							{
								OFFSET 3.450000 0.000000 0.000000
								CHANNELS 3 Zrotation Yrotation Xrotation
								JOINT LeftHandIndex1
								{
									OFFSET 0.750000 0.000000 0.000000
									CHANNELS 3 Zrotation Yrotation Xrotation
									End Site
									{
										OFFSET 0.000000 0.000000 0.000000
									}
								}
							}
						}
					}
				}
				JOINT RightShoulder
				{
					OFFSET 0.000000 0.000000 0.000000
					CHANNELS 3 Zrotation Yrotation Xrotation
					JOINT RightArm
					{
						OFFSET -2.700000 1.550000 -0.730000
						CHANNELS 3 Zrotation Yrotation Xrotation
						JOINT RightForeArm
						{
							OFFSET -5.450000 0.000000 0.000000
							CHANNELS 3 Zrotation Yrotation Xrotation
							JOINT RightHand
							{
								OFFSET -3.450000 0.000000 0.000000
								CHANNELS 3 Zrotation Yrotation Xrotation
								JOINT RightHandIndex1
								{
									OFFSET -0.750000 0.000000 0.000000
									CHANNELS 3 Zrotation Yrotation Xrotation
									End Site
									{
										OFFSET 0.000000 0.000000 0.000000
									}
								}
							}
						}
					}
				}
			}
		}
	}
}
MOTION
Frames: 12
Frame Time: 0.016667
0.662070 17.591730 -1.605730 -3.546657 8.807733 0.778474 -14.611393 12.806220 2.570456 8.393005 -1.981159 -19.483235 -5.198592 6.559725 20.063961 -0.712726 4.674596 2.899625 -0.338260 -0.612770 -0.285140 18.795554 -11.815229 2.460199 -6.802595 0.181422 -9.235874 1.575815 -4.502554 12.343353 0.103348 -3.848973 3.069259 -0.108000 0.698890 0.173070 -5.322542 0.619707 -6.585750 18.315629 0.817663 1.681364 -24.423863 2.260587 12.852697 7.859628 -4.267958 -11.233665 -9.481568 16.502210 57.819775 -2.743420 11.429350 12.130620 -11.264406 -9.730084 4.369133 -48.754166 -16.304593 -1.315394 21.028018 -34.832291 -7.924441 -4.268267 2.764210 0.214660 0.501240 -0.428020 -0.044780 -5.051078 13.000033 5.966108 83.352551 39.577517 23.993008 42.029927 42.819869 12.788750 2.188299 -1.899671 -0.492920 0.243880 0.544180 -0.150730 
0.654650 17.584260 -1.617780 -3.494993 10.535593 0.365094 -14.607890 12.768063 2.553777 8.179037 -2.066038 -19.398274 -4.803521 6.330959 19.931710 -0.742910 4.561345 2.919685 -0.287590 -0.548680 -0.245740 18.799023 -11.876400 2.464427 -6.827672 0.037077 -8.721052 1.738071 -4.635099 12.698849 0.063959 -3.915911 3.033141 -0.073340 0.659710 0.167180 -5.376755 0.758299 -6.619105 17.992558 1.012854 2.133409 -23.526398 2.512442 13.399701 7.667094 -3.037477 -11.263561 -6.812580 15.106614 61.372367 -1.599920 11.277580 11.820090 -10.913746 -11.642261 4.468708 -48.462512 -19.066457 0.455806 19.333763 -28.664132 -6.487844 -4.294579 2.768887 0.232830 0.476390 -0.399030 -0.045350 -4.916750 13.870032 6.020650 85.714847 39.891182 23.638942 34.532073 36.934650 8.265729 2.185032 -1.884497 -0.479080 0.241270 0.519580 -0.161450 
0.650070 17.577500 -1.628960 -3.565138 12.108206 -0.083480 -14.603684 12.727244 2.527226 8.083139 -2.095041 -19.168129 -4.408460 6.094307 19.619176 -0.782580 4.462489 2.945079 -0.258340 -0.519750 -0.214640 18.800384 -11.949784 2.478019 -6.822510 -0.086542 -8.297134 2.051746 -4.818643 13.138910 0.033409 -3.992684 2.995436 -0.051060 0.635800 0.163100 -5.429147 0.937246 -6.658198 17.669413 1.317492 2.690066 -21.944748 2.796622 13.944490 7.389884 -1.767287 -11.212787 -3.857381 13.019768 64.424269 -0.760290 10.879830 11.594010 -10.832278 -13.478006 4.578308 -48.703944 -21.742732 2.269800 17.238133 -23.675680 -5.347261 -4.326981 2.756790 0.256280 0.460290 -0.380130 -0.049150 -4.262912 14.701620 6.066842 86.713141 39.539869 22.638589 27.646879 31.485262 5.073491 2.175406 -1.825507 -0.481760 0.246420 0.508540 -0.176390 
0.641120 17.568490 -1.637580 -3.518455 13.397891 -0.236495 -14.620034 12.697348 2.529007 7.954981 -2.140863 -19.173650 -4.184110 5.928074 19.296566 -0.841596 4.408123 2.967074 -0.269830 -0.534090 -0.232310 18.778533 -12.008609 2.472969 -6.874655 -0.119576 -8.372199 2.366136 -5.024276 13.935250 0.036837 -4.059261 2.978653 -0.040720 0.659340 0.148540 -5.413043 1.063916 -6.696314 16.800144 1.734353 3.224526 -19.802279 3.080500 14.194137 6.956049 -0.485985 -10.982374 -0.636640 10.706939 66.060161 0.306840 10.366570 11.584960 -10.430107 -14.720332 4.554491 -49.973474 -24.316552 4.225714 15.111509 -19.915973 -4.519841 -4.380555 2.720782 0.279530 0.469880 -0.395710 -0.051460 -3.568746 15.017586 5.989473 87.694105 38.515162 21.557047 21.216443 26.250256 2.833151 2.140607 -1.743208 -0.516590 0.277160 0.530930 -0.188390 
0.629760 17.569720 -1.645680 -3.504328 14.416769 -0.325481 -14.649912 12.683189 2.549015 8.016419 -2.162585 -19.194894 -4.276598 5.877830 18.944280 -0.885575 4.379441 2.970479 -0.262100 -0.527580 -0.231520 18.741349 -12.046536 2.457584 -6.855084 -0.097788 -8.705726 2.619182 -5.210777 15.010705 0.035862 -4.094050 2.963942 -0.023300 0.662180 0.130720 -5.346505 1.125761 -6.736614 15.675018 2.150824 3.868126 -17.111553 3.309741 14.301204 6.298647 0.730506 -10.796418 2.372277 8.378039 67.230991 1.650210 9.678460 11.187110 -9.927999 -15.830397 4.645157 -51.924287 -26.522427 6.031041 13.259622 -17.525193 -3.998518 -4.397163 2.696621 0.308670 0.459850 -0.396240 -0.053990 -2.493241 15.300295 5.799492 87.455092 36.971352 20.035932 15.455272 21.556960 1.414649 2.123728 -1.637308 -0.540850 0.304610 0.539710 -0.200710 
0.617350 17.572260 -1.651710 -3.478048 15.197945 -0.106252 -14.702449 12.672259 2.594752 8.168542 -2.228133 -19.544652 -4.574802 5.897819 18.607557 -0.931288 4.391531 2.961547 -0.276120 -0.556400 -0.239670 18.684692 -12.031946 2.448632 -6.822734 -0.028120 -9.170500 2.987097 -5.368981 15.666107 0.048018 -4.101585 2.959859 -0.024370 0.679220 0.120220 -5.206754 1.094469 -6.782146 14.275093 2.629677 4.397369 -14.063811 3.543800 14.116518 5.619413 1.949590 -10.609309 5.289473 6.044959 67.392739 2.727200 9.048160 10.937400 -9.209578 -16.454283 4.696671 -54.665286 -28.461427 7.855470 11.486833 -16.302349 -3.657138 -4.413921 2.677168 0.340900 0.459650 -0.407160 -0.062410 -1.580674 15.166252 5.524438 86.475583 34.930672 18.246909 11.088911 17.854547 0.656011 2.112076 -1.530890 -0.574660 0.329630 0.564060 -0.216380 
0.606070 17.575450 -1.656250 -3.510621 15.782126 0.373102 -14.762443 12.667627 2.660363 8.329771 -2.344616 -20.221089 -4.862009 5.917846 18.352607 -0.956287 4.385661 2.951273 -0.281680 -0.571800 -0.239700 18.622728 -11.985642 2.441366 -6.702860 0.078635 -9.810979 3.326680 -5.474204 16.184816 0.058599 -4.069292 2.963141 -0.027820 0.681470 0.114450 -5.038643 0.995909 -6.828372 12.930580 3.095442 4.799118 -11.015050 3.752364 13.701299 4.864448 3.135020 -10.506768 7.879219 3.939137 66.774562 3.919140 8.336530 10.510740 -8.437523 -16.755828 4.775119 -57.629895 -29.903041 9.418058 9.451267 -16.293388 -3.367938 -4.401797 2.679383 0.367480 0.448470 -0.405090 -0.070960 -0.630121 14.716753 5.247541 85.052642 32.311759 15.902676 7.401433 15.275673 0.131560 2.120993 -1.433858 -0.590680 0.341540 0.576790 -0.225400 
0.594650 17.581570 -1.658020 -3.488617 16.255604 1.012691 -14.834797 12.682619 2.743171 8.425692 -2.501556 -21.119352 -5.082639 5.941622 18.287407 -0.982028 4.386438 2.935297 -0.284380 -0.579830 -0.239680 18.549887 -11.905595 2.437792 -6.496631 0.194691 -10.460948 3.488355 -5.472879 16.357405 0.066094 -3.984822 2.982065 -0.028900 0.679270 0.109260 -4.829825 0.802497 -6.879301 11.464176 3.470120 5.203617 -7.888381 3.898572 13.168868 3.963849 4.073254 -10.470217 9.607411 2.273138 65.580146 5.086390 7.391700 9.517480 -7.558317 -16.656526 4.848555 -60.750425 -30.738600 10.482857 7.154460 -17.655955 -3.159395 -4.364538 2.682166 0.404290 0.428000 -0.390560 -0.078220 0.458785 14.046737 5.001173 83.038962 29.325175 12.990924 4.264171 13.835334 -0.293232 2.133705 -1.328907 -0.605460 0.362010 0.589280 -0.231060 
0.589380 17.588340 -1.659850 -3.579128 16.502045 1.684492 -14.897412 12.705019 2.820982 8.490250 -2.639080 -22.024954 -5.143449 5.913357 18.160176 -1.019559 4.374465 2.929173 -0.311070 -0.609590 -0.263640 18.486962 -11.812247 2.449678 -6.281523 0.302776 -11.017924 3.736704 -5.444803 16.113970 0.086378 -3.883779 3.018160 -0.036890 0.693050 0.093250 -4.643627 0.582474 -6.937924 10.389602 3.790255 5.587174 -4.900258 4.030417 12.656268 3.015349 4.644494 -10.536418 10.266852 1.119315 64.042669 6.164920 6.165290 8.480180 -6.621325 -16.340940 4.954597 -63.814183 -31.010209 10.982076 4.383379 -20.157971 -2.934080 -4.323585 2.675943 0.443250 0.413410 -0.387550 -0.089320 1.516538 13.404892 4.905260 80.290435 26.152613 9.674768 1.979021 13.595542 -0.636822 2.136075 -1.215410 -0.636080 0.398460 0.617990 -0.233640 
0.591420 17.594660 -1.658980 -3.683917 16.553180 2.397504 -14.953030 12.734672 2.887092 8.414986 -2.774892 -22.901100 -4.949294 5.823252 18.094389 -1.051275 4.343134 2.941346 -0.338520 -0.650320 -0.282490 18.430603 -11.722496 2.468031 -6.119479 0.412661 -11.561173 4.024386 -5.407550 15.720116 0.110121 -3.779130 3.063982 -0.054120 0.710860 0.077890 -4.473170 0.366420 -6.987686 9.476799 4.051317 5.825698 -2.081714 4.111646 12.161538 2.103002 4.923461 -10.666109 10.205342 0.185197 62.599585 7.003170 4.714680 7.681860 -5.486766 -15.656027 5.092669 -67.102735 -30.806815 11.037842 1.150060 -23.357373 -2.632477 -4.278267 2.685753 0.479980 0.401070 -0.389550 -0.096670 2.286914 12.611316 4.862691 77.675528 23.091859 6.592732 -0.151650 13.665648 -0.945042 2.134708 -1.120533 -0.665970 0.433720 0.641430 -0.235670 
0.596450 17.598490 -1.656980 -3.702683 16.518328 3.175948 -15.007887 12.770979 2.958518 8.224048 -2.902382 -23.687728 -4.811252 5.720639 17.876267 -1.069581 4.280645 2.967021 -0.353950 -0.668210 -0.299330 18.372532 -11.636209 2.478916 -6.083191 0.545802 -12.269829 4.287383 -5.374948 15.524929 0.129288 -3.675023 3.107078 -0.065410 0.720490 0.062280 -4.300284 0.139982 -7.036228 8.554795 4.268284 6.040372 0.689889 4.159142 11.686421 1.175820 4.917906 -10.742825 9.419394 -0.366761 60.716929 7.668710 3.251190 6.568350 -4.212777 -14.585998 5.203172 -70.393279 -30.247734 10.736143 -2.863002 -26.998905 -2.083316 -4.225175 2.726975 0.507560 0.383710 -0.385460 -0.097900 2.935906 11.648682 4.775288 75.113793 20.176923 3.698554 -2.205940 13.998294 -1.249299 2.133244 -1.047700 -0.682100 0.464450 0.652920 -0.230040 
0.607550 17.607630 -1.655220 -3.615490 16.326367 3.912212 -15.063821 12.807991 3.027842 7.944101 -3.007222 -24.259388 -4.840517 5.639449 17.543441 -1.076940 4.191967 2.994252 -0.338080 -0.641680 -0.296420 18.311327 -11.551849 2.492016 -6.204601 0.659806 -12.875292 4.606536 -5.330674 15.155947 0.130945 -3.567043 3.149551 -0.061560 0.699040 0.047730 -4.117504 -0.081980 -7.087669 7.573310 4.519113 6.328061 3.362175 4.253615 11.268639 0.352362 4.731845 -10.808331 8.251627 -0.815590 58.860873 8.123200 1.872490 4.793630 -3.364192 -13.466135 5.317664 -73.043629 -29.223759 9.975435 -7.961705 -30.916289 -1.063747 -4.157833 2.789759 0.536300 0.351260 -0.361440 -0.095910 3.816125 10.822274 4.718678 72.189986 17.364125 0.956240 -4.108376 14.647109 -1.534857 2.127054 -0.992519 -0.676020 0.483240 0.642620 -0.225490 
